<?xml version="1.0" encoding="UTF-8" standalone="no"?>
<!-- Created with Inkscape (http://www.inkscape.org/) -->

<svg
   xmlns:dc="http://purl.org/dc/elements/1.1/"
   xmlns:cc="http://creativecommons.org/ns#"
   xmlns:rdf="http://www.w3.org/1999/02/22-rdf-syntax-ns#"
   xmlns:svg="http://www.w3.org/2000/svg"
   xmlns="http://www.w3.org/2000/svg"
   xmlns:sodipodi="http://sodipodi.sourceforge.net/DTD/sodipodi-0.dtd"
   xmlns:inkscape="http://www.inkscape.org/namespaces/inkscape"
   width="512.4137"
   height="511.91492"
   viewBox="0 0 135.57612 135.44415"
   version="1.1"
   id="svg8"
   sodipodi:docname="logo.svg"
   inkscape:version="0.92.3 (2405546, 2018-03-11)">
  <defs
     id="defs2">
    <inkscape:perspective
       sodipodi:type="inkscape:persp3d"
       inkscape:vp_x="305.70373 : 69.212834 : 1"
       inkscape:vp_y="0 : 674.68867 : 0"
       inkscape:vp_z="610.18602 : 44.731272 : 1"
       inkscape:persp3d-origin="460.6366 : 11.33418 : 1"
       id="perspective1314" />
    <filter
       style="color-interpolation-filters:sRGB"
       inkscape:label="Roughen"
       id="filter1108">
      <feTurbulence
         type="fractalNoise"
         numOctaves="5"
         seed="1"
         baseFrequency="0.013 0.013"
         result="turbulence"
         id="feTurbulence1104" />
      <feDisplacementMap
         in="SourceGraphic"
         in2="turbulence"
         scale="6.6"
         yChannelSelector="G"
         xChannelSelector="R"
         id="feDisplacementMap1106" />
    </filter>
  </defs>
  <sodipodi:namedview
     id="base"
     pagecolor="#ffffff"
     bordercolor="#666666"
     borderopacity="1.0"
     inkscape:pageopacity="0.0"
     inkscape:pageshadow="2"
     inkscape:zoom="1.5812608"
     inkscape:cx="123.47077"
     inkscape:cy="258.18595"
     inkscape:document-units="mm"
     inkscape:current-layer="layer1"
     showgrid="false"
     inkscape:window-width="1920"
     inkscape:window-height="1135"
     inkscape:window-x="0"
     inkscape:window-y="0"
     inkscape:window-maximized="1"
     inkscape:snap-nodes="false"
     fit-margin-top="0"
     fit-margin-left="0"
     fit-margin-right="0"
     fit-margin-bottom="0"
     units="px"
     inkscape:pagecheckerboard="true" />
  <metadata
     id="metadata5">
    <rdf:RDF>
      <cc:Work
         rdf:about="">
        <dc:format>image/svg+xml</dc:format>
        <dc:type
           rdf:resource="http://purl.org/dc/dcmitype/StillImage" />
        <dc:title></dc:title>
      </cc:Work>
    </rdf:RDF>
  </metadata>
  <g
     inkscape:label="Layer 1"
     inkscape:groupmode="layer"
     id="layer1"
     transform="translate(240.32825,-24.07764)">
    <g
       sodipodi:type="inkscape:box3d"
       id="g1316"
       style="fill:#f9f9f9;stroke:#000000;stroke-width:7.55905533;stroke-miterlimit:4;stroke-dasharray:none;stroke-opacity:1"
       inkscape:perspectiveID="#perspective1314"
       inkscape:corner0="-1.8418039 : 0.16007421 : 0 : 1"
       inkscape:corner7="-1.8735701 : 0.026235143 : 0.16765005 : 1">
      <path
         sodipodi:type="inkscape:box3dside"
         id="path1318"
         style="fill:#353564;fill-rule:evenodd;stroke:none;stroke-width:7.40997744;stroke-linejoin:round"
         inkscape:box3dsidetype="6"
         d="M -118.67316,149.84967 V 42.580382 L -240.16211,24.623007 V 158.56826 Z"
         points="-118.67316,42.580382 -240.16211,24.623007 -240.16211,158.56826 -118.67316,149.84967 " />
      <path
         sodipodi:type="inkscape:box3dside"
         id="path1322"
         style="fill:#8686bf;fill-rule:evenodd;stroke:none;stroke-width:7.40997744;stroke-linejoin:round"
         inkscape:box3dsidetype="3"
         d="m -118.67316,149.84967 6.69268,-2.16512 V 44.315967 l -6.69268,-1.735585 z"
         points="-111.98048,147.68455 -111.98048,44.315967 -118.67316,42.580382 -118.67316,149.84967 " />
      <path
         sodipodi:type="inkscape:box3dside"
         id="path1320"
         style="fill:#4d4d9f;fill-rule:evenodd;stroke:none;stroke-width:7.40997744;stroke-linejoin:round"
         inkscape:box3dsidetype="5"
         d="m -118.67316,149.84967 6.69268,-2.16512 -114.43252,7.81206 -13.74911,3.07165 z"
         points="-111.98048,147.68455 -226.413,155.49661 -240.16211,158.56826 -118.67316,149.84967 " />
      <path
         sodipodi:type="inkscape:box3dside"
         id="path1328"
         style="fill:#e9e9ff;fill-rule:evenodd;stroke:none;stroke-width:7.40997744;stroke-linejoin:round"
         inkscape:box3dsidetype="11"
         d="m -240.16211,158.56826 13.74911,-3.07165 V 27.578856 l -13.74911,-2.955849 z"
         points="-226.413,155.49661 -226.413,27.578856 -240.16211,24.623007 -240.16211,158.56826 " />
      <path
         sodipodi:type="inkscape:box3dside"
         id="path1326"
         style="fill:#afafde;fill-rule:evenodd;stroke:none;stroke-width:7.40997744;stroke-linejoin:round"
         inkscape:box3dsidetype="13"
         d="m -118.67316,42.580382 6.69268,1.735585 -114.43252,-16.737111 -13.74911,-2.955849 z"
         points="-111.98048,44.315967 -226.413,27.578856 -240.16211,24.623007 -118.67316,42.580382 " />
      <path
         sodipodi:type="inkscape:box3dside"
         id="path1324"
         style="fill:#d7d7ff;fill-rule:evenodd;stroke:none;stroke-width:7.40997744;stroke-linejoin:round"
         inkscape:box3dsidetype="14"
         d="M -111.98048,147.68455 V 44.315967 L -226.413,27.578856 V 155.49661 Z"
         points="-111.98048,44.315967 -226.413,27.578856 -226.413,155.49661 -111.98048,147.68455 " />
    </g>
    <path
       sodipodi:type="star"
       style="fill:#f9f9f9;stroke:#000000;stroke-width:2.19537306;stroke-miterlimit:4;stroke-dasharray:none;stroke-opacity:1"
       id="path1383"
       sodipodi:sides="5"
       sodipodi:cx="-191.81738"
       sodipodi:cy="78.741554"
       sodipodi:r1="42.837231"
       sodipodi:r2="21.418615"
       sodipodi:arg1="0.79909594"
       sodipodi:arg2="1.4274145"
       inkscape:flatsided="false"
       inkscape:rounded="0"
       inkscape:randomized="0"
       d="m -161.94463,109.44411 -26.81222,-9.503729 -23.02921,16.699459 0.75315,-28.436753 -22.99855,-16.741656 27.2777,-8.071154 8.81532,-27.046376 16.1054,23.448509 28.44671,0.02608 -17.32402,22.563129 z"
       inkscape:transform-center-x="4.1541867"
       inkscape:transform-center-y="-0.16142318"
       transform="matrix(0.16240213,-1.0487024,1.0402394,0.16372337,-230.0634,-133.95048)" />
  </g>
  <g
     inkscape:groupmode="layer"
     id="layer2"
     inkscape:label="Layer 2"
     transform="translate(240.32825,-24.07764)">
    <g
       aria-label="Web   Things"
       transform="matrix(0.61670426,-0.2651457,0.89169466,1.0570316,-150.86366,-82.664568)"
       style="font-style:normal;font-weight:normal;font-size:25.39999962px;line-height:1.25;font-family:sans-serif;letter-spacing:0px;word-spacing:0px;fill:#000000;fill-opacity:1;stroke:none;stroke-width:0.26458332;filter:url(#filter1108)"
       id="text819">
      <g
         id="g1464"
         transform="translate(-214.17975,26.972785)">
        <path
           inkscape:connector-curvature="0"
           id="path1398"
           style="font-style:normal;font-variant:normal;font-weight:bold;font-stretch:normal;font-size:25.39999962px;font-family:Purisa;-inkscape-font-specification:'Purisa Bold';text-align:center;text-anchor:middle;stroke-width:0.26458332"
           d="m -25.986776,104.6711 q 1.0922,0 1.9558,0.4064 0.8636,0.4064 0.8636,0.9652 0,0.4318 -0.3556,0.7366 -0.3556,0.2794 -0.9144,0.381 -0.5588,0.1016 -0.889,0.127 -0.3048,0.0254 -0.5842,0.0254 -1.651,0 -3.7084,0.4318 l -1.7272,0.381 0.3302,1.7526 q 0.3048,1.905 0.7112,7.3406 0.4064,5.4356 0.4826,5.9944 0.0762,0.4572 0.0762,0.889 0,1.2192 -1.0414,1.2192 -0.4826,0 -0.7874,-0.3302 -0.2794,-0.3302 -0.5334,-1.3208 -0.2286,-0.9906 -0.381,-2.4384 -0.127,-1.4732 -0.3048,-4.0894 -0.1778,-2.5908 -0.4318,-4.5974 -0.2286,-2.0066 -0.4572,-2.9464 -0.2032,-0.9398 -0.381,-1.0668 -0.1524,-0.1016 -0.4572,-0.1016 -0.2032,0 -1.8034,0.254 -1.6002,0.254 -2.54,0.254 -0.5842,0 -1.6764,0.2032 -1.0922,0.1778 -1.524,0.1778 -0.7112,0 -1.1938,-0.3048 -0.4826,-0.3302 -0.4826,-0.8128 0,-0.5842 0.7366,-0.8382 0.6096,-0.2032 5.1562,-0.8636 4.064,-0.5842 8.0518,-1.2954 3.1242,-0.5334 3.81,-0.5334 z" />
        <path
           inkscape:connector-curvature="0"
           id="path1400"
           style="font-style:normal;font-variant:normal;font-weight:bold;font-stretch:normal;font-size:25.39999962px;font-family:Purisa;-inkscape-font-specification:'Purisa Bold';text-align:center;text-anchor:middle;stroke-width:0.26458332"
           d="m -19.998327,121.7399 q 0,-2.0574 -0.508,-8.1788 -0.4826,-6.1468 -0.4826,-7.9756 0,-1.4478 0.2032,-1.7526 0.4318,-0.7112 0.889,-0.7112 0.6858,0 0.8636,1.0668 0.2032,1.0414 0.508,5.5372 0.1778,2.413 0.2794,3.937 l 0.127,1.7526 q 0.7366,-1.27 2.8956,-3.0734 2.1844,-1.8288 3.048,-1.8288 0.8636,0 1.7018,0.7366 0.8382002,0.7366 1.0922002,1.6256 0.2286,0.7874 0.2286,5.969 v 0.5334 q 0,4.953 -1.0160002,4.953 -0.5334,0 -0.6858,-0.7874 -0.127,-0.7874 -0.2032,-3.2512 -0.0254,-0.8128 -0.0508,-1.27 -0.1524,-4.826 -0.6604,-6.1722 l -0.2794,-0.7874 -1.2192,1.016 q -1.2954,1.0668 -2.3368,2.4638 -1.0414,1.397 -1.4224,2.4638 -0.1778,0.635 -0.381,2.4638 -0.1778,1.8288 -0.4826,3.048 -0.3048,1.2192 -0.889,1.2192 -0.254,0 -0.635,-0.3048 -0.5842,-0.4572 -0.5842,-2.6924 z" />
        <path
           inkscape:connector-curvature="0"
           id="path1402"
           style="font-style:normal;font-variant:normal;font-weight:bold;font-stretch:normal;font-size:25.39999962px;font-family:Purisa;-inkscape-font-specification:'Purisa Bold';text-align:center;text-anchor:middle;stroke-width:0.26458332"
           d="m -4.4067015,109.6749 q 0.4318,-0.3048 0.8382,-0.3048 0.4064,0 0.6858,0.3302 0.4064,0.762 0.6604,4.4196 0.2794,3.6576 0.2794,6.8326 0,2.286 -0.1524,2.5908 -0.508,0.4064 -1.0922,0.4064 -0.889,0 -1.0922,-0.5334 -0.127,-0.4064 -0.4064,-5.2832 -0.254,-4.9022 -0.254,-6.5532 0,-1.5494 0.5334,-1.905 z m -0.2794,-5.9436 q 0.0508,-0.4826 0.4064,-0.7874 0.381,-0.3048 0.7366,-0.3048 0.3556,0 0.9144,0.3302 0.5588,0.3302 0.5588,0.889 0,0.6096 -0.3048,1.0922 -0.3048,0.4826 -0.8128,0.4826 -0.5334,0 -1.016,-0.4826 -0.4826,-0.508 -0.4826,-1.2192 z" />
        <path
           inkscape:connector-curvature="0"
           id="path1404"
           style="font-style:normal;font-variant:normal;font-weight:bold;font-stretch:normal;font-size:25.39999962px;font-family:Purisa;-inkscape-font-specification:'Purisa Bold';text-align:center;text-anchor:middle;stroke-width:0.26458332"
           d="m 3.4605516,110.8687 q 0,-1.3208 0.8382,-1.3208 0.5588,0.0254 0.7366,0.6858 0.1778,0.6604 0.508,3.7084 0.0254,0.2286 0.0254,0.3556 0.0254,0.127 0.0508,0.3302 0.0254,0.2032 0.0508,0.381 l 0.3556,2.8956 0.2794,-0.8382 q 0.5334,-1.651 0.9144,-2.413 0.4064,-0.762 1.4732,-2.159 2.0574004,-2.7178 3.4798004,-2.7178 0.939799,0 1.625599,1.0414 0.8128,1.143 0.9906,2.286 0.2032,1.143 0.2794,5.2324 0.0508,2.5908 0.0508,3.1496 0,1.6764 -0.2286,2.286 -0.2286,0.5842 -0.9398,0.5842 -0.4826,0 -0.635,-0.254 -0.1524,-0.2794 -0.1524,-1.0922 0,-0.381 0.0508,-1.5748 0.0508,-1.1938 0.0508,-1.9812 0,-2.159 -0.1778,-4.0386 -0.1778,-1.8796 -0.4064,-2.3622 -0.1016,-0.2032 -0.254,-0.381 -0.152399,-0.2032 -0.279399,-0.3048 -0.1016,-0.1016 -0.1524,-0.1016 -0.4064,0 -1.6764,1.7018 -1.2446005,1.7018 -2.1082004,3.4798 -0.889,1.8796 -1.1938,2.7432 -0.2794,0.8636 -0.4572,2.3368 -0.2794,2.3622 -0.4572,2.6162 -0.127,0.1524 -0.2794,0.1524 -0.381,-0.0508 -0.8128,-0.5334 -0.2286,-0.254 -0.3556,-0.635 -0.1016,-0.4064 -0.1778,-1.2192 -0.0762,-0.8382 -0.127,-1.778 -0.0508,-0.9652 -0.2032,-2.7686 -0.1524,-1.8288 -0.381,-3.7846 -0.3048,-3.048 -0.3048,-3.7084 z" />
        <path
           inkscape:connector-curvature="0"
           id="path1406"
           style="font-style:normal;font-variant:normal;font-weight:bold;font-stretch:normal;font-size:25.39999962px;font-family:Purisa;-inkscape-font-specification:'Purisa Bold';text-align:center;text-anchor:middle;stroke-width:0.26458332"
           d="m 21.38978,117.7521 q 0,1.3208 0.6858,2.4638 0.7112,1.1176 1.778,1.1176 1.524,0 3.3528,-1.3462 1.8542,-1.3462 2.9972,-3.4036 0.6604,-1.1938 1.0922,-2.6924 0.4572,-1.4986 0.4572,-2.3114 0,-0.254 -0.0508,-0.3556 -0.4572,-0.2286 -1.7526,-0.2286 -1.143,0 -2.032,0.2286 -2.2352,0.6096 -4.3942,2.8702 -2.1336,2.2606 -2.1336,3.6576 z m 9.906,10.541 q 0.9398,0 0.9398,-0.762 0,-1.9558 -0.127,-3.2258 -0.127,-1.2446 -0.3302,-2.1336 -0.1778,-0.889 -0.2286,-1.4224 -0.0762,-1.1938 -0.1778,-1.8542 -0.7112,0.9398 -2.2352,2.0828 -1.524,1.1176 -2.5908,1.4986 -1.2446,0.4318 -2.7178,0.4318 -0.9144,0 -1.4986,-0.2032 -0.5588,-0.2032 -1.397,-0.889 -0.7874,-0.6604 -1.143,-1.2192 -0.3302,-0.5842 -0.508,-1.4986 -0.1778,-0.9398 -0.1778,-1.6002 0,-1.016 0.9398,-2.6416 0.9398,-1.651 1.6002,-2.4638 0.6096,-0.762 2.2098,-1.6764 1.6002,-0.9398 2.8194,-1.2954 1.2954,-0.4064 2.9464,-0.4064 2.0574,0 3.428999,0.6858 1.397,0.6858 1.397,2.1844 0,0.7874 -0.381,1.8796 -0.3556,1.0668 -0.3556,1.8288 0,0.4572 0.0508,1.3208 0.0762,0.8382 0.2286,2.8448 0.1778,1.9812 0.3048,3.9624 l 0.381,5.2578 -1.016,0.8128 q -0.7874,0.6604 -1.650999,0.6604 -1.524,0 -3.6576,-0.6858 -2.1082,-0.6858 -3.6576,-1.651 -1.524,-0.9652 -1.524,-1.651 0,-0.889 0.8382,-1.905 0.8636,-1.016 1.4986,-1.016 0.9652,0 0.9652,0.7112 0,0.3048 -0.254,0.762 -0.254,0.4572 -0.254,0.8128 0,0.5334 0.8636,0.9906 0.889,0.4572 1.4986,0.4572 0.508,0 1.4224,0.508 0.9398,0.508 1.5494,0.508 z" />
        <path
           inkscape:connector-curvature="0"
           id="path1408"
           style="font-style:normal;font-variant:normal;font-weight:bold;font-stretch:normal;font-size:25.39999962px;font-family:Purisa;-inkscape-font-specification:'Purisa Bold';text-align:center;text-anchor:middle;stroke-width:0.26458332"
           d="m 38.658209,122.4511 q 0,-0.4318 0.2286,-0.7366 0.2286,-0.3302 0.5588,-0.3302 0.635,0 1.1176,0.889 0.2794,0.5334 1.2192,1.016 0.9398,0.4572 1.7526,0.4572 1.016,0 1.8542,-1.1176 0.8636,-1.143 0.8636,-1.7526 0,-0.1016 -0.0762,-0.2794 -0.0762,-0.2032 -0.4318,-0.5334 -0.3302,-0.3302 -0.8636,-0.4826 -0.8636,-0.254 -1.8796,-0.635 -1.016,-0.4064 -1.4986,-0.508 -0.762,-0.1524 -2.0066,-1.0668 -1.2446,-0.9144 -1.2446,-1.9304 0,-1.016 1.4478,-2.6162 1.4478,-1.6002 3.5814,-2.0574 l 2.54,-0.2286 q 0.6858,0 1.0414,0.1778 0.3556,0.1524 0.889,0.762 0.8636,0.9906 0.8636,1.4478 0,0.635 -0.6604,0.635 -0.5588,0 -1.143,-0.5842 -0.5588,-0.6096 -1.397,-0.6096 -1.143,0 -2.3876,0.6604 -1.2192,0.635 -1.9304,1.3462 -0.7112,0.6858 -0.7112,0.9906 0,0.2032 0.2794,0.4826 0.3048,0.254 0.9906,0.6096 0.7112,0.3556 1.6764,0.635 2.667,0.7874 3.683,1.5494 1.016,0.762 1.016,2.1336 0,1.1938 -0.4318,2.159 -0.3556,0.8382 -1.397,1.7272 -1.0414,0.9144 -2.1336,0.9144 -0.7874,0 -2.0574,-0.2286 -1.2446,-0.2032 -1.9304,-0.508 -0.5588,-0.2794 -0.9906,-0.9906 -0.4318,-0.7366 -0.4318,-1.397 z" />
      </g>
    </g>
    <g
       id="g1456"
       transform="matrix(0.94511265,0,0,0.89143978,-54.562677,100.12824)">
      <path
         transform="matrix(0.26458333,0,0,0.26458333,-160.18962,-39.951304)"
         inkscape:connector-curvature="0"
         id="path1392"
         style="font-style:normal;font-variant:normal;font-weight:bold;font-stretch:normal;font-size:25.39999962px;line-height:1.25;font-family:Purisa;-inkscape-font-specification:'Purisa Bold';text-align:center;letter-spacing:0px;word-spacing:0px;text-anchor:middle;fill:#000000;fill-opacity:1;stroke:none;stroke-width:1.02681744;filter:url(#filter1108)"
         d="M 2.9357159,67.865406 Q 0.67136449,65.019587 0.16940724,63.852324 -0.3604822,62.542674 0.7670712,62.028705 1.5814153,61.657506 2.8139201,62.026411 6.4352376,63.788332 17.518338,74.713598 28.664079,85.61031 42.192679,99.60906 55.630704,113.49398 60.555591,118.07431 58.833861,114.51579 50.421562,99.115615 41.98133,83.573048 40.803045,80.697528 q -0.948873,-3.445448 1.431518,-4.530492 3.507944,-1.599013 14.003645,4.940442 10.558343,6.510901 22.267861,17.150629 3.043986,2.645563 5.272806,4.266623 Q 82.56588,99.820152 79.45083,94.725085 76.245206,89.516186 73.618558,86.215036 70.692256,82.430002 56.135298,60.058236 41.640981,37.657916 39.89132,33.957013 q 0.138838,-0.683761 0.514689,-0.855084 1.941898,-0.885167 3.87784,-0.06131 1.935943,0.823853 4.472016,4.01117 2.988944,3.75648 12.807297,18.670864 l 20.110731,30.853643 q 5.672278,8.738097 9.539853,14.886204 3.930216,6.11957 4.947686,7.82744 1.017469,1.70787 1.8885,3.01714 0.871031,1.30927 2.501368,3.35826 2.0832,2.61815 2.47425,4.61156 0.36312,1.85103 -1.015,2.47921 -1.87248,0.54329 -4.630367,-0.99173 -2.84846,-1.64886 -5.620724,-3.95292 -2.800196,-2.44645 -3.475701,-2.75901 -0.870209,0.0864 -1.086067,0.0297 -1.532159,-0.85279 -4.5973,-3.95406 -4.792825,-4.95077 -14.000979,-12.232235 -9.208155,-7.281471 -12.704189,-9.1005 l -2.423522,-1.222076 3.721958,7.145203 q 3.540811,6.917538 6.907251,13.294078 3.338507,6.23416 5.603681,10.47567 2.327816,4.21296 4.355977,7.94204 2.090804,3.70052 3.345285,5.92083 1.254482,2.22031 2.327816,4.21296 0.98276,1.87881 1.366211,2.78985 0.536667,0.99633 0.613686,1.73681 0.230235,0.82577 0.09817,1.1962 -0.132061,0.37044 -0.605264,0.74126 -0.159993,0.22804 -0.786412,0.51358 -1.503404,0.68529 -3.376705,-0.16711 -2.326171,-1.42158 -11.668031,-11.124 Q 56.033467,123.54823 43.723817,110.54503 31.47681,97.513289 25.889973,91.99374 20.14992,86.388912 17.523272,83.087762 16.074087,81.266438 15.036285,80.498545 13.970551,79.588266 13.14183,79.190425 12.37575,78.76403 9.7076155,75.947148 7.1021226,73.101712 2.9357159,67.865406 Z" />
      <path
         transform="matrix(0.26458333,0,0,0.26458333,-160.18962,-39.951304)"
         inkscape:connector-curvature="0"
         id="path1394"
         style="font-style:normal;font-variant:normal;font-weight:bold;font-stretch:normal;font-size:25.39999962px;line-height:1.25;font-family:Purisa;-inkscape-font-specification:'Purisa Bold';text-align:center;letter-spacing:0px;word-spacing:0px;text-anchor:middle;fill:#000000;fill-opacity:1;stroke:none;stroke-width:1.02681744;filter:url(#filter1108)"
         d="m 112.80867,61.370816 q -0.72459,-0.910661 -6.46978,-3.410775 -4.17832,-1.818264 -5.59875,-2.101508 -1.357784,-0.311797 -2.923831,0.402048 -3.132093,1.42769 -3.910905,3.023643 -0.806744,1.453566 -0.171081,5.041783 1.969631,10.736098 3.899619,13.268972 0.341141,-3.82e-4 1.155485,-0.371582 6.076263,-2.769718 13.771143,-11.551283 1.96901,-2.138475 0.2481,-4.301298 z m 22.3915,14.302134 q 1.12755,-0.513968 3.02961,1.876519 2.0832,2.618153 4.16127,8.341021 1.9875,5.609035 2.52581,9.396746 1.67922,14.125964 -5.77516,17.523874 -6.1389,2.79827 -18.06181,-3.7111 -11.92291,-6.50938 -24.150407,-21.876795 -3.441814,-4.325644 -5.922846,-8.623882 -4.300112,-7.657259 -5.795719,-17.368479 -1.58618,-9.825054 2.610824,-11.738158 1.127554,-0.513968 3.591741,-1.171853 3.744957,-1.086574 5.757096,-0.917928 1.984207,0.02626 5.521731,1.361021 3.90659,1.476766 9.06767,5.173845 5.0705,3.583245 7.69715,6.884394 3.44181,4.325645 3.13025,7.259801 -0.31157,2.934157 -3.58845,6.754629 -4.35536,4.93254 -10.26402,8.556577 l -5.08755,2.939511 2.35493,2.959652 q 3.35124,4.211811 6.88958,6.942267 3.60099,2.701902 8.72653,5.174228 7.30528,3.49529 10.75058,1.92483 2.75624,-1.25637 3.47077,-5.615155 0.62395,-4.472619 -0.1446,-9.086096 -0.7059,-4.64203 -1.05629,-8.515403 -0.37832,-4.015759 0.56131,-4.444066 z" />
      <path
         transform="matrix(0.26458333,0,0,0.26458333,-160.18962,-39.951304)"
         inkscape:connector-curvature="0"
         id="path1396"
         style="font-style:normal;font-variant:normal;font-weight:bold;font-stretch:normal;font-size:25.39999962px;line-height:1.25;font-family:Purisa;-inkscape-font-specification:'Purisa Bold';text-align:center;letter-spacing:0px;word-spacing:0px;text-anchor:middle;fill:#000000;fill-opacity:1;stroke:none;stroke-width:1.02681744;filter:url(#filter1108)"
         d="m 143.76363,25.078756 q 1.12755,-0.513968 3.32084,-0.117657 2.19328,0.396311 5.35495,1.902396 3.0711,1.392252 7.36197,5.175756 4.20029,3.669672 8.45727,9.019811 6.43076,8.082124 11.06606,17.448022 4.6353,9.365898 5.85836,17.339926 0.77615,5.695844 -0.51489,12.333963 -1.31896,6.495732 -3.88728,7.666438 -3.16002,1.285303 -8.20855,-0.446535 -5.1391,-1.845671 -7.20115,-4.008111 Q 164.00582,89.998601 146.83906,69.281807 129.6723,48.565014 121.70261,39.943427 104.97598,21.818144 96.009151,10.548703 90.937003,4.1740698 91.533845,0.95475743 q 0.0762,-0.6552075 0.51469,-0.8550841 1.440762,-0.65673726 4.958773,3.01369947 3.490082,3.52805 12.198742,13.8293392 8.70867,10.301289 15.55676,17.727824 10.24083,11.154078 13.68942,15.166396 l 2.66135,3.130209 -1.30685,-8.401188 q -1.00639,-6.521609 -0.9039,-9.825818 0.0119,-3.418042 1.23599,-5.527198 2.18404,-3.477444 3.62481,-4.134181 z m 19.86714,19.175654 q -8.33282,-10.472612 -11.9034,-8.845046 -1.37812,0.628183 -2.67923,1.996853 -0.79319,0.826913 -0.57404,6.466414 0.21915,5.639501 1.9569,12.758445 0.87945,3.787329 4.22474,9.708161 3.40793,5.892278 7.66491,11.242417 3.17009,3.984146 5.7265,6.231482 2.61904,2.218782 3.72626,2.644795 1.16987,0.397458 1.671,0.169028 1.12756,-0.513968 2.25429,-2.423631 1.12673,-1.909662 1.31136,-7.578099 0.0941,-5.78227 -2.46563,-13.612382 -2.762,-8.513491 -10.91366,-18.758437 z" />
    </g>
  </g>
</svg>
